<svg width="251" height="99" viewBox="0 0 251 99" fill="none" xmlns="http://www.w3.org/2000/svg">
<path d="M246.508 36.8563C244.539 34.2315 241.915 32.9191 238.196 32.9191C229.666 32.9191 226.385 42.3245 226.385 50.8549C226.385 59.3854 229.885 68.572 238.196 68.572C238.196 68.572 250.008 69.8844 250.008 49.7613C250.008 45.3867 249.133 40.3559 246.508 36.8563Z" fill="#003C71"/>
<path d="M174.109 39.0435C177.608 41.012 180.233 43.8555 182.202 47.3552C182.858 46.0428 183.514 44.9492 184.389 43.8555L199.919 24.3886H211.73L191.826 49.3237C185.264 56.9793 190.732 68.5719 200.794 68.5719C207.355 68.5719 212.605 63.3224 212.605 56.7605C212.605 50.1987 207.355 44.9492 200.794 44.9492L207.355 36.8562C211.73 38.3873 215.448 41.012 218.073 44.7304C220.479 28.5445 231.416 21.5451 243.446 24.3886C224.416 -7.98334 177.827 -8.20207 158.579 24.1699H185.92L174.109 39.0435Z" fill="#003C71"/>
<path d="M175.421 57.1981C175.421 50.6362 170.171 45.3867 163.61 45.3867C163.61 45.3867 160.985 45.3867 158.36 45.3867L168.422 32.9191H155.735L140.643 52.6048L132.987 32.9191H122.488L133.862 62.2289L130.581 77.7587H141.737L145.018 62.2289L151.579 53.9171C151.579 55.4483 151.798 56.9794 152.017 58.7292C152.673 64.4162 157.704 69.0095 163.61 69.0095C170.171 68.7907 175.421 63.5412 175.421 57.1981Z" fill="#003C71"/>
<path d="M220.261 64.6349C213.699 81.2583 190.732 82.352 182.42 66.6035C178.265 74.4777 169.515 79.071 160.329 77.5399C180.014 106.412 222.667 105.975 241.915 76.8837C232.728 78.6336 224.416 74.259 220.261 64.6349Z" fill="#003C71"/>
<path d="M25.3726 32.9191H9.40536L0 77.5399H16.8422C33.6843 77.5399 47.683 65.5098 47.683 51.2924C47.683 40.5747 38.4964 32.9191 25.3726 32.9191ZM19.9044 67.4784H13.1238L18.3733 42.9807H25.5913C31.9345 42.9807 36.3091 46.6991 36.3091 51.9486C36.3091 60.2603 28.6535 67.4784 19.9044 67.4784Z" fill="#003C71"/>
<path d="M116.583 32.9191H103.896L80.9298 70.978L75.6802 62.4476C83.117 59.8228 88.3666 53.4797 88.3666 45.8242C88.3666 38.1686 82.4609 32.9191 73.9304 32.9191H53.5886L44.1832 77.7587H55.3384L58.1819 63.76H63.8689L72.3993 77.7587H89.6789L93.8348 70.978H111.333L112.646 77.7587H124.894L116.364 33.1379L116.583 32.9191ZM68.8996 53.4797H60.3692L62.5565 42.9807H71.5244C74.8053 42.9807 76.7739 44.2931 76.7739 46.4803C76.9926 49.98 73.0555 53.4797 68.8996 53.4797ZM98.8656 62.4476L107.177 48.8864L109.802 62.4476H98.8656Z" fill="#003C71"/>
</svg>
