<svg width="103" height="38" fill="none" xmlns="http://www.w3.org/2000/svg">
  <g opacity=".5" fill="#FFFFFF">
    <path d="M99.746 37v-5h.71l.912 3.48.989-3.48H103v5h-.595v-3.084L101.55 37h-.316l-.884-3.073V37h-.604zm-1.968 0v-4.24H97V32h2.275v.76h-.73V37h-.767zM96.894 18.547c-.622-.823-1.451-1.234-2.626-1.234-2.696 0-3.732 2.947-3.732 5.62 0 2.672 1.105 5.55 3.732 5.55 0 0 3.732.411 3.732-5.893 0-1.37-.276-2.947-1.106-4.043z"/>
    <path d="M74.017 19.232c1.106.617 1.935 1.508 2.557 2.604.207-.411.415-.754.691-1.096l4.907-6.1h3.733l-6.29 7.813c-2.073 2.398-.346 6.03 2.834 6.03 2.073 0 3.732-1.645 3.732-3.7 0-2.056-1.659-3.7-3.732-3.7l2.073-2.536c1.383.48 2.558 1.302 3.387 2.467.76-5.071 4.216-7.264 8.017-6.373-6.013-10.142-20.734-10.21-26.817-.069h8.64l-3.732 4.66z"/>
    <path d="M74.431 24.92c0-2.056-1.659-3.7-3.732-3.7H69.04l3.18-3.907h-4.01l-4.768 6.168-2.42-6.168h-3.317l3.594 9.183-1.037 4.865h3.525l1.037-4.865 2.074-2.604c0 .48.069.96.138 1.507.207 1.782 1.797 3.221 3.663 3.221 2.073-.069 3.732-1.713 3.732-3.7zM88.6 27.25c-2.073 5.207-9.33 5.55-11.957.616a6.652 6.652 0 01-6.98 3.427c6.22 9.045 19.697 8.908 25.78-.206-2.903.548-5.53-.822-6.843-3.837zM27.017 17.313h-5.045L19 31.293h5.322c5.322 0 9.745-3.77 9.745-8.224 0-3.357-2.902-5.756-7.05-5.756zM25.29 28.14h-2.143l1.659-7.675h2.28c2.005 0 3.387 1.165 3.387 2.81 0 2.604-2.419 4.865-5.183 4.865zM55.839 17.313H51.83l-7.257 11.924-1.659-2.673c2.35-.822 4.009-2.81 4.009-5.208s-1.866-4.043-4.562-4.043h-6.428l-2.972 14.048h3.525l.899-4.386h1.797l2.695 4.386h5.46l1.314-2.124h5.53l.414 2.124h3.87l-2.695-13.98.069-.068zm-15.067 6.442h-2.696l.691-3.29h2.834c1.037 0 1.659.412 1.659 1.097.069 1.096-1.175 2.193-2.488 2.193zm9.468 2.81l2.627-4.25.83 4.25H50.24zM10.773 10.383a4.192 4.192 0 01-.435 1.45c-.225.43-.503.752-.835.967-.332.211-.7.312-1.104.302-.612-.013-1.08-.22-1.406-.62l-.473 2.55h-.884l1.27-7.315.8-.005-.098.59c.437-.468.96-.696 1.568-.683.508.013.903.2 1.186.562.284.361.433.859.45 1.494.003.208-.005.41-.025.605l-.014.103zm-.87-.103l.025-.41c0-.475-.091-.838-.274-1.089-.179-.254-.44-.387-.781-.4-.511-.013-.952.23-1.323.727l-.445 2.535c.199.468.555.71 1.07.722.44.01.812-.16 1.118-.513.31-.354.513-.878.61-1.572zm4.767-2.66c.443.006.822.126 1.138.36.315.235.548.559.698.972.153.41.205.86.156 1.348l-.01.107c-.062.514-.215.98-.459 1.397a2.7 2.7 0 01-.947.966 2.31 2.31 0 01-1.274.328 1.92 1.92 0 01-1.138-.362 2.012 2.012 0 01-.693-.957 3.082 3.082 0 01-.157-1.333 3.6 3.6 0 01.445-1.474c.247-.437.564-.773.952-1.011.39-.241.82-.355 1.289-.342zm-1.797 2.831a3.011 3.011 0 000 .64c.033.384.147.69.342.918.198.228.462.346.79.356.294.01.564-.062.811-.215.248-.156.456-.39.625-.703.17-.312.279-.659.328-1.04.026-.3.03-.552.014-.757-.039-.393-.158-.704-.356-.932a1.057 1.057 0 00-.791-.362c-.456-.01-.843.17-1.162.538-.32.367-.516.85-.591 1.445l-.01.112zm9.44 1.299l1.684-4.033h.913L22.503 13h-.718l-.547-3.994L19.334 13h-.718l-.571-5.283h.845l.322 3.935 1.875-3.935h.713l.512 4.033zm5.137 1.348c-.657-.013-1.172-.256-1.543-.728-.37-.472-.527-1.076-.468-1.811l.024-.21c.055-.524.21-1.003.464-1.436.257-.433.57-.758.937-.976a2.17 2.17 0 011.192-.318c.543.013.97.194 1.279.542.31.348.479.82.508 1.416.01.212.003.423-.02.635l-.053.405h-3.453c-.058.479.02.886.235 1.22.218.336.542.51.971.523.521.013 1.003-.221 1.446-.703l.508.43a2.34 2.34 0 01-.86.752 2.433 2.433 0 01-1.167.259zm.562-4.742a1.299 1.299 0 00-.957.372c-.27.257-.485.64-.645 1.147l2.569.005.019-.078c.052-.41-.015-.75-.2-1.02a.922.922 0 00-.786-.426zm5.875.166l-.415-.043c-.567 0-1.013.255-1.338.766L31.484 13h-.883l.918-5.283.854-.005-.132.615c.375-.491.816-.73 1.324-.718.107 0 .247.025.42.074l-.098.84zm2.481 4.576c-.657-.013-1.172-.256-1.543-.728-.37-.472-.527-1.076-.469-1.811l.025-.21c.055-.524.21-1.003.464-1.436.257-.433.57-.758.937-.976a2.17 2.17 0 011.192-.318c.543.013.97.194 1.279.542.31.348.478.82.508 1.416.01.212.003.423-.02.635l-.053.405h-3.453c-.058.479.02.886.235 1.22.218.336.542.51.971.523.521.013 1.003-.221 1.446-.703l.508.43a2.34 2.34 0 01-.86.752 2.433 2.433 0 01-1.167.259zm.562-4.742a1.299 1.299 0 00-.957.372c-.27.257-.485.64-.645 1.147l2.569.005.019-.078c.052-.41-.015-.75-.2-1.02a.922.922 0 00-.786-.426zm2.843 1.993a4.111 4.111 0 01.444-1.455c.23-.433.516-.757.854-.972a1.954 1.954 0 011.119-.308c.589.013 1.041.228 1.357.645l.508-2.759h.883L43.64 13h-.806l.093-.566a1.948 1.948 0 01-1.543.664c-.489-.013-.877-.204-1.167-.572-.29-.37-.446-.867-.469-1.489a4.752 4.752 0 01.025-.688zm.85.507c-.01.466.072.827.248 1.084.176.258.433.39.772.396.51.023.965-.234 1.362-.771l.42-2.442c-.195-.482-.55-.73-1.065-.742a1.342 1.342 0 00-.922.317c-.264.218-.466.526-.606.923a3.83 3.83 0 00-.21 1.235zm12.16-.473a4.117 4.117 0 01-.445 1.46c-.231.433-.511.753-.84.962a1.91 1.91 0 01-1.094.297c-.638-.013-1.111-.252-1.42-.717l-.181.615h-.816l1.304-7.5h.884l-.532 2.803c.423-.469.937-.697 1.542-.684.508.013.904.2 1.187.562.283.361.433.859.45 1.494a4.61 4.61 0 01-.03.605l-.01.103zm-.84-.513c.01-.475-.07-.838-.24-1.089-.17-.254-.428-.387-.776-.4-.55-.013-1.016.264-1.397.83l-.395 2.3c.195.537.561.812 1.098.825.346.013.647-.09.904-.308.26-.218.457-.522.59-.913.134-.394.206-.809.215-1.245zm3.628 1.797l1.88-3.95h.977l-3.135 6.162c-.436.856-.996 1.28-1.68 1.27a2.866 2.866 0 01-.532-.088l.078-.733.23.024c.28.014.52-.05.722-.19.205-.137.386-.36.542-.669l.318-.605-.913-5.171h.922l.591 3.95z"/>
  </g>
</svg>

