<svg width="103" height="38" viewBox="0 0 103 38" fill="none" xmlns="http://www.w3.org/2000/svg">
<g opacity="0.5">
<path d="M99.7456 37V32H100.456L101.368 35.4807L102.357 32H103V37H102.405V33.9161L101.55 37H101.234L100.35 33.9274V37H99.7456ZM97.7776 37V32.7596H97V32H99.2752V32.7596H98.5456V37H97.7776Z" fill="#003C71"/>
<path d="M96.8943 18.5467C96.2723 17.7244 95.4429 17.3132 94.2679 17.3132C91.5724 17.3132 90.5356 20.2598 90.5356 22.9323C90.5356 25.6048 91.6415 28.4829 94.2679 28.4829C94.2679 28.4829 98.0002 28.8941 98.0002 22.5897C98.0002 21.2192 97.7237 19.6431 96.8943 18.5467Z" fill="#003C71"/>
<path d="M74.0166 19.2319C75.1225 19.8486 75.9519 20.7395 76.5739 21.8359C76.7813 21.4247 76.9886 21.0821 77.2651 20.7395L82.1724 14.6407H85.9047L79.6151 22.4526C77.5416 24.851 79.2695 28.4829 82.4488 28.4829C84.5223 28.4829 86.1811 26.8383 86.1811 24.7825C86.1811 22.7267 84.5223 21.0821 82.4488 21.0821L84.5223 18.5467C85.9047 19.0263 87.0796 19.8486 87.909 21.0136C88.6693 15.9427 92.1251 13.7499 95.9265 14.6407C89.9134 4.4989 75.1916 4.43038 69.1094 14.5722H77.7489L74.0166 19.2319Z" fill="#003C71"/>
<path d="M74.4312 24.9196C74.4312 22.8638 72.7725 21.2192 70.699 21.2192C70.699 21.2192 69.8696 21.2192 69.0402 21.2192L72.2195 17.3132H68.2108L63.4417 23.4805L61.0227 17.3132H57.7051L61.2991 26.4957L60.2624 31.361H63.7873L64.8241 26.4957L66.8976 23.8917C66.8976 24.3714 66.9667 24.8511 67.0358 25.3993C67.2431 27.1809 68.8328 28.62 70.699 28.62C72.7725 28.5514 74.4312 26.9068 74.4312 24.9196Z" fill="#003C71"/>
<path d="M88.6 27.2495C86.5265 32.4574 79.2693 32.8 76.6429 27.8662C75.3297 30.3331 72.565 31.7721 69.6621 31.2925C75.8826 40.3378 89.3603 40.2008 95.4425 31.0869C92.5396 31.6351 89.9132 30.2646 88.6 27.2495Z" fill="#003C71"/>
<path d="M27.0175 17.3132H21.972L19 31.2925H24.322C29.6439 31.2925 34.0674 27.5236 34.0674 23.0694C34.0674 19.7116 31.1645 17.3132 27.0175 17.3132ZM25.2896 28.1403H23.147L24.8058 20.4654H27.0866C29.091 20.4654 30.4733 21.6303 30.4733 23.275C30.4733 25.8789 28.0542 28.1403 25.2896 28.1403Z" fill="#003C71"/>
<path d="M55.8389 17.3132H51.8302L44.573 29.2367L42.9142 26.5642C45.2641 25.7419 46.9229 23.7546 46.9229 21.3562C46.9229 18.9578 45.0568 17.3132 42.3612 17.3132H35.9334L32.9614 31.361H36.4864L37.3849 26.9753H39.1819L41.8774 31.361H47.3376L48.6508 29.2367H54.1801L54.5948 31.361H58.4654L55.7698 17.3818L55.8389 17.3132ZM40.7716 23.7546H38.076L38.7672 20.4654H41.601C42.6377 20.4654 43.2598 20.8766 43.2598 21.5618C43.3289 22.6582 42.0848 23.7546 40.7716 23.7546ZM50.2405 26.5642L52.8669 22.3156L53.6963 26.5642H50.2405Z" fill="#003C71"/>
<path d="M10.7725 10.3828C10.7074 10.9199 10.5625 11.4033 10.3379 11.833C10.1133 12.2627 9.83496 12.585 9.50293 12.7998C9.1709 13.0114 8.80306 13.1123 8.39941 13.1025C7.78743 13.0895 7.31868 12.8828 6.99316 12.4824L6.51953 15.0312H5.63574L6.90527 7.7168L7.70605 7.71191L7.6084 8.30273C8.0446 7.83398 8.56706 7.60612 9.17578 7.61914C9.68359 7.63216 10.0791 7.81934 10.3623 8.18066C10.6455 8.54199 10.7952 9.04004 10.8115 9.6748C10.8148 9.88314 10.8066 10.085 10.7871 10.2803L10.7725 10.3828ZM9.90332 10.2803L9.92773 9.87012C9.92773 9.39486 9.83659 9.0319 9.6543 8.78125C9.47526 8.52734 9.21484 8.39388 8.87305 8.38086C8.36198 8.36784 7.9209 8.61035 7.5498 9.1084L7.10547 11.6426C7.30404 12.1113 7.66048 12.3522 8.1748 12.3652C8.61426 12.375 8.98698 12.2041 9.29297 11.8525C9.60221 11.4977 9.80566 10.9736 9.90332 10.2803ZM14.6699 7.61914C15.1126 7.62565 15.4919 7.74609 15.8076 7.98047C16.1234 8.21484 16.3561 8.53874 16.5059 8.95215C16.6589 9.3623 16.7109 9.81152 16.6621 10.2998L16.6523 10.4072C16.5905 10.9215 16.4375 11.387 16.1934 11.8037C15.9492 12.2171 15.6335 12.5394 15.2461 12.7705C14.8587 13.0016 14.4339 13.1107 13.9717 13.0977C13.5322 13.0911 13.153 12.9707 12.834 12.7363C12.5182 12.502 12.2871 12.1829 12.1406 11.7793C11.9941 11.3757 11.9421 10.9313 11.9844 10.4463C12.0332 9.89941 12.1813 9.40788 12.4287 8.97168C12.6761 8.53548 12.9935 8.19857 13.3809 7.96094C13.7715 7.72005 14.2012 7.60612 14.6699 7.61914ZM12.873 10.4512C12.8503 10.6562 12.8503 10.8695 12.873 11.0908C12.9056 11.4749 13.0195 11.7809 13.2148 12.0088C13.4134 12.2367 13.6771 12.3555 14.0059 12.3652C14.2988 12.375 14.569 12.3034 14.8164 12.1504C15.0638 11.9941 15.2721 11.7598 15.4414 11.4473C15.6107 11.1348 15.7197 10.7881 15.7686 10.4072C15.7946 10.1077 15.7995 9.85547 15.7832 9.65039C15.7441 9.25651 15.6253 8.94564 15.4268 8.71777C15.2282 8.48991 14.9645 8.36947 14.6357 8.35645C14.18 8.34668 13.7926 8.52572 13.4736 8.89355C13.1546 9.26139 12.9577 9.74316 12.8828 10.3389L12.873 10.4512ZM22.3125 11.75L23.9971 7.7168H24.9102L22.5029 13H21.7852L21.2383 9.00586L19.334 13H18.6162L18.0449 7.7168H18.8896L19.2119 11.6523L21.0869 7.7168H21.7998L22.3125 11.75ZM27.4502 13.0977C26.7926 13.0846 26.2783 12.8421 25.9072 12.3701C25.5361 11.8981 25.3799 11.2943 25.4385 10.5586L25.4629 10.3486C25.5182 9.82454 25.6729 9.34603 25.9268 8.91309C26.1839 8.48014 26.4964 8.15462 26.8643 7.93652C27.2321 7.71517 27.6292 7.60938 28.0557 7.61914C28.5993 7.63216 29.0257 7.81283 29.335 8.16113C29.6442 8.50944 29.8135 8.98145 29.8428 9.57715C29.8525 9.78874 29.846 10.0003 29.8232 10.2119L29.7695 10.6172H26.3174C26.2588 11.0957 26.3369 11.5026 26.5518 11.8379C26.7699 12.1732 27.0938 12.3473 27.5234 12.3604C28.0443 12.3734 28.526 12.139 28.9688 11.6572L29.4766 12.0869C29.2552 12.4059 28.9688 12.6566 28.6172 12.8389C28.2689 13.0179 27.8799 13.1042 27.4502 13.0977ZM28.0117 8.35645C27.6471 8.34668 27.3281 8.47038 27.0547 8.72754C26.7845 8.9847 26.5697 9.36719 26.4102 9.875L28.9785 9.87988L28.998 9.80176C29.0501 9.3916 28.9834 9.05143 28.7979 8.78125C28.6156 8.50781 28.3535 8.36621 28.0117 8.35645ZM33.8867 8.52246L33.4717 8.47852C32.9053 8.47852 32.4593 8.73405 32.1338 9.24512L31.4844 13H30.6006L31.5186 7.7168L32.373 7.71191L32.2412 8.32715C32.6156 7.83561 33.0566 7.59635 33.5645 7.60938C33.6719 7.60938 33.8118 7.63379 33.9844 7.68262L33.8867 8.52246ZM36.3682 13.0977C35.7106 13.0846 35.1963 12.8421 34.8252 12.3701C34.4541 11.8981 34.2979 11.2943 34.3564 10.5586L34.3809 10.3486C34.4362 9.82454 34.5908 9.34603 34.8447 8.91309C35.1019 8.48014 35.4144 8.15462 35.7822 7.93652C36.1501 7.71517 36.5472 7.60938 36.9736 7.61914C37.5173 7.63216 37.9437 7.81283 38.2529 8.16113C38.5622 8.50944 38.7314 8.98145 38.7607 9.57715C38.7705 9.78874 38.764 10.0003 38.7412 10.2119L38.6875 10.6172H35.2354C35.1768 11.0957 35.2549 11.5026 35.4697 11.8379C35.6878 12.1732 36.0117 12.3473 36.4414 12.3604C36.9622 12.3734 37.444 12.139 37.8867 11.6572L38.3945 12.0869C38.1732 12.4059 37.8867 12.6566 37.5352 12.8389C37.1868 13.0179 36.7979 13.1042 36.3682 13.0977ZM36.9297 8.35645C36.5651 8.34668 36.2461 8.47038 35.9727 8.72754C35.7025 8.9847 35.4876 9.36719 35.3281 9.875L37.8965 9.87988L37.916 9.80176C37.9681 9.3916 37.9014 9.05143 37.7158 8.78125C37.5335 8.50781 37.2715 8.36621 36.9297 8.35645ZM39.7725 10.3486C39.8376 9.81152 39.9857 9.3265 40.2168 8.89355C40.4479 8.46061 40.7327 8.13672 41.0713 7.92188C41.4098 7.70703 41.7826 7.60449 42.1895 7.61426C42.7786 7.62728 43.2311 7.84212 43.5469 8.25879L44.0547 5.5H44.9385L43.6396 13H42.834L42.9268 12.4336C42.5101 12.8893 41.9958 13.1107 41.3838 13.0977C40.8955 13.0846 40.5065 12.8942 40.2168 12.5264C39.9271 12.1553 39.7708 11.6589 39.748 11.0371C39.7383 10.8451 39.7464 10.6156 39.7725 10.3486ZM40.6221 10.8564C40.6123 11.3219 40.6953 11.6833 40.8711 11.9404C41.0469 12.1976 41.304 12.3294 41.6426 12.3359C42.1536 12.3587 42.6077 12.1016 43.0049 11.5645L43.4248 9.12305C43.2295 8.64128 42.8747 8.39388 42.3604 8.38086C42.012 8.37109 41.7044 8.47689 41.4375 8.69824C41.1738 8.91634 40.972 9.22396 40.832 9.62109C40.6953 10.015 40.6253 10.4268 40.6221 10.8564ZM52.7822 10.3828C52.7171 10.9232 52.569 11.4098 52.3379 11.8428C52.1068 12.2757 51.8268 12.5964 51.498 12.8047C51.1693 13.013 50.8047 13.1123 50.4043 13.1025C49.7663 13.0895 49.2926 12.8503 48.9834 12.3848L48.8027 13H47.9873L49.291 5.5H50.1748L49.6426 8.30273C50.0658 7.83398 50.5801 7.60612 51.1855 7.61914C51.6934 7.63216 52.0889 7.81934 52.3721 8.18066C52.6553 8.54199 52.805 9.04004 52.8213 9.6748C52.8245 9.88314 52.8148 10.085 52.792 10.2803L52.7822 10.3828ZM51.9424 9.87012C51.9521 9.39486 51.8724 9.0319 51.7031 8.78125C51.5339 8.52734 51.2751 8.39388 50.9268 8.38086C50.3766 8.36784 49.9111 8.64453 49.5303 9.21094L49.1348 11.5107C49.3301 12.0479 49.6963 12.3229 50.2334 12.3359C50.5785 12.349 50.8796 12.2464 51.1367 12.0283C51.3971 11.8102 51.5941 11.5059 51.7275 11.1152C51.861 10.7214 51.9326 10.3063 51.9424 9.87012ZM55.5713 11.667L57.4512 7.7168H58.4277L55.293 13.8789C54.8568 14.735 54.2969 15.1582 53.6133 15.1484C53.4928 15.1452 53.3154 15.1159 53.0811 15.0605L53.1592 14.3281L53.3887 14.3525C53.6686 14.3656 53.9095 14.3021 54.1113 14.1621C54.3164 14.0254 54.4971 13.8024 54.6533 13.4932L54.9707 12.8877L54.0576 7.7168H54.9805L55.5713 11.667Z" fill="#003C71"/>
</g>
</svg>
