<svg width="111" height="46" viewBox="0 0 111 46" fill="none" xmlns="http://www.w3.org/2000/svg">
<path d="M108.075 20.7646V17.0536H108.713L109.533 19.637L110.422 17.0536H111V20.7646H110.465V18.4758L109.697 20.7646H109.412L108.618 18.4842V20.7646H108.075ZM106.306 20.7646V17.6175H105.607V17.0536H107.652V17.6175H106.996V20.7646H106.306Z" fill="#A0B1B6"/>
<path d="M2.29655 37.0546H7.18455L9.26455 34.9746L11.6825 21.1946L9.60255 19.1146H4.71455L2.63455 21.1946L0.216547 34.9746L2.29655 37.0546ZM4.09055 34.4026L3.54455 33.8826L5.59855 22.2866L6.11855 21.7666H7.78255L8.32855 22.2866L6.27455 33.8826L5.75455 34.4026H4.09055ZM10.8684 37.0546H13.8844L15.4704 27.9806L16.9264 26.5246H18.5124L18.9804 23.8986H17.0044L15.1844 25.7186L15.2624 23.8986H13.2084L10.8684 37.0546ZM25.207 37.0546H26.923L27.339 34.8186H26.611L26.559 34.7666L29.315 19.1146H26.299L25.233 25.1466L24.011 23.8986H21.671L19.877 25.6926L18.213 35.2606L19.981 37.0546H22.425L23.803 35.6766L25.207 37.0546ZM21.827 34.8966L21.333 34.4286L22.737 26.5246L23.231 26.0566H23.881L24.895 27.0966L23.751 33.6486L22.477 34.8966H21.827ZM30.2388 37.0546H34.8408L36.6088 35.2606L36.9988 33.0766H34.0088L33.7748 34.4286L33.2808 34.8966H32.1108L31.6168 34.4286L32.1368 31.3866H37.3108L38.2988 25.6926L36.5308 23.8986H31.9548L30.1608 25.6926L28.4708 35.2606L30.2388 37.0546ZM32.9948 26.5246L33.4888 26.0566H34.6588L35.1528 26.5246L34.6588 29.3586H32.5008L32.9948 26.5246ZM38.1126 37.0546H41.1286L42.7146 27.9806L44.1706 26.5246H45.7566L46.2246 23.8986H44.2486L42.4286 25.7186L42.5066 23.8986H40.4526L38.1126 37.0546ZM45.4572 37.0546H48.0312L50.7872 21.3766L50.3712 37.0546H53.9592L59.0292 21.3766L56.2732 37.0546H59.2372L62.4092 19.1146H57.5212L52.8672 33.8566L53.4652 19.1146H48.6292L45.4572 37.0546ZM68.6758 37.0546H70.3918L70.8078 34.8186H70.0798L70.0278 34.7666L71.9258 23.8986H69.9238L69.2478 25.3286L67.8438 23.8986H65.1398L63.3458 25.6926L61.6818 35.2606L63.4498 37.0546H65.8938L67.2718 35.6766L68.6758 37.0546ZM65.2958 34.8966L64.8018 34.4286L66.2058 26.5246L66.6998 26.0566H67.4798L68.3898 26.9926L67.1938 33.6486L65.9458 34.8966H65.2958ZM73.4996 37.0546H77.9716L79.7656 35.2606L80.4936 31.1786L79.0636 29.7486L76.2296 28.9686L75.9956 28.7346L76.3856 26.5246L76.8536 26.0566H77.7636L78.2316 26.5246L77.9976 27.9806H80.9876L81.4036 25.6926L79.6096 23.8986H75.2936L73.4996 25.6926L72.7976 29.7486L74.2276 31.1786L77.0876 31.9586L77.3216 32.1926L76.9316 34.4286L76.4376 34.8966H75.3196L74.8516 34.4286L75.1116 32.9466H72.0956L71.7056 35.2606L73.4996 37.0546ZM82.3178 26.3166H83.6438L82.0838 35.2606L83.8778 37.0546H87.3358L87.7778 34.5326H85.7758L85.3078 34.0646L86.6598 26.3166H89.1298L89.5718 23.8986H87.1018L87.6478 20.7786H84.6318L84.0858 23.8986H82.7338L82.3178 26.3166ZM90.6431 37.0546H95.2451L97.0131 35.2606L97.4031 33.0766H94.4131L94.1791 34.4286L93.6851 34.8966H92.5151L92.0211 34.4286L92.5411 31.3866H97.7151L98.7031 25.6926L96.9351 23.8986H92.3591L90.5651 25.6926L88.8751 35.2606L90.6431 37.0546ZM93.3991 26.5246L93.8931 26.0566H95.0631L95.5571 26.5246L95.0631 29.3586H92.9051L93.3991 26.5246ZM98.5169 37.0546H101.533L103.119 27.9806L104.575 26.5246H106.161L106.629 23.8986H104.653L102.833 25.7186L102.911 23.8986H100.857L98.5169 37.0546Z" fill="#A0B1B6"/>
<path d="M2.13408 5.86625V14.4343H3.15408V11.2423H3.17808C3.29008 11.4263 3.42608 11.5823 3.58608 11.7103C3.75408 11.8303 3.93008 11.9263 4.11408 11.9983C4.29808 12.0703 4.48208 12.1223 4.66608 12.1543C4.85808 12.1863 5.03008 12.2023 5.18208 12.2023C5.65408 12.2023 6.06608 12.1183 6.41808 11.9503C6.77808 11.7823 7.07408 11.5543 7.30608 11.2663C7.54608 10.9703 7.72208 10.6263 7.83408 10.2343C7.95408 9.84225 8.01408 9.42625 8.01408 8.98625C8.01408 8.54625 7.95408 8.13025 7.83408 7.73825C7.71408 7.34625 7.53408 7.00225 7.29408 6.70625C7.06208 6.40225 6.76608 6.16225 6.40608 5.98625C6.05408 5.81025 5.63808 5.72225 5.15808 5.72225C4.72608 5.72225 4.33008 5.80225 3.97008 5.96225C3.61008 6.11425 3.34608 6.36225 3.17808 6.70625H3.15408V5.86625H2.13408ZM6.93408 8.91425C6.93408 9.21825 6.90208 9.51425 6.83808 9.80225C6.77408 10.0903 6.67008 10.3463 6.52608 10.5703C6.38208 10.7943 6.19008 10.9743 5.95008 11.1103C5.71808 11.2463 5.42608 11.3143 5.07408 11.3143C4.72208 11.3143 4.42208 11.2503 4.17408 11.1223C3.92608 10.9863 3.72208 10.8103 3.56208 10.5943C3.41008 10.3783 3.29808 10.1303 3.22608 9.85025C3.15408 9.56225 3.11808 9.26625 3.11808 8.96225C3.11808 8.67425 3.15008 8.39025 3.21408 8.11025C3.28608 7.83025 3.39808 7.58225 3.55008 7.36625C3.70208 7.14225 3.89808 6.96225 4.13808 6.82625C4.37808 6.69025 4.67008 6.62225 5.01408 6.62225C5.34208 6.62225 5.62608 6.68625 5.86608 6.81425C6.11408 6.94225 6.31408 7.11425 6.46608 7.33025C6.62608 7.54625 6.74208 7.79425 6.81408 8.07425C6.89408 8.34625 6.93408 8.62625 6.93408 8.91425ZM9.95536 8.97425C9.95536 8.59825 10.0034 8.26625 10.0994 7.97825C10.2034 7.68225 10.3434 7.43425 10.5194 7.23425C10.6954 7.03425 10.8994 6.88225 11.1314 6.77825C11.3714 6.67425 11.6234 6.62225 11.8874 6.62225C12.1514 6.62225 12.3994 6.67425 12.6314 6.77825C12.8714 6.88225 13.0794 7.03425 13.2554 7.23425C13.4314 7.43425 13.5674 7.68225 13.6634 7.97825C13.7674 8.26625 13.8194 8.59825 13.8194 8.97425C13.8194 9.35025 13.7674 9.68625 13.6634 9.98225C13.5674 10.2703 13.4314 10.5143 13.2554 10.7143C13.0794 10.9063 12.8714 11.0543 12.6314 11.1583C12.3994 11.2623 12.1514 11.3143 11.8874 11.3143C11.6234 11.3143 11.3714 11.2623 11.1314 11.1583C10.8994 11.0543 10.6954 10.9063 10.5194 10.7143C10.3434 10.5143 10.2034 10.2703 10.0994 9.98225C10.0034 9.68625 9.95536 9.35025 9.95536 8.97425ZM8.87536 8.97425C8.87536 9.43025 8.93936 9.85425 9.06736 10.2463C9.19536 10.6383 9.38736 10.9823 9.64336 11.2783C9.89936 11.5663 10.2154 11.7943 10.5914 11.9623C10.9674 12.1223 11.3994 12.2023 11.8874 12.2023C12.3834 12.2023 12.8154 12.1223 13.1834 11.9623C13.5594 11.7943 13.8754 11.5663 14.1314 11.2783C14.3874 10.9823 14.5794 10.6383 14.7074 10.2463C14.8354 9.85425 14.8994 9.43025 14.8994 8.97425C14.8994 8.51825 14.8354 8.09425 14.7074 7.70225C14.5794 7.30225 14.3874 6.95825 14.1314 6.67025C13.8754 6.37425 13.5594 6.14225 13.1834 5.97425C12.8154 5.80625 12.3834 5.72225 11.8874 5.72225C11.3994 5.72225 10.9674 5.80625 10.5914 5.97425C10.2154 6.14225 9.89936 6.37425 9.64336 6.67025C9.38736 6.95825 9.19536 7.30225 9.06736 7.70225C8.93936 8.09425 8.87536 8.51825 8.87536 8.97425ZM22.246 12.0703L24.226 5.86625H23.17L21.778 10.9423H21.754L20.458 5.86625H19.342L18.094 10.9423H18.07L16.666 5.86625H15.538L17.53 12.0703H18.634L19.882 7.13825H19.906L21.166 12.0703H22.246ZM29.5037 8.37425H25.9397C25.9557 8.13425 26.0077 7.91025 26.0957 7.70225C26.1837 7.48625 26.3037 7.29825 26.4557 7.13825C26.6077 6.97825 26.7877 6.85425 26.9957 6.76625C27.2117 6.67025 27.4517 6.62225 27.7157 6.62225C27.9717 6.62225 28.2037 6.67025 28.4117 6.76625C28.6277 6.85425 28.8117 6.97825 28.9637 7.13825C29.1237 7.29025 29.2477 7.47425 29.3357 7.69025C29.4317 7.90625 29.4877 8.13425 29.5037 8.37425ZM30.4877 10.1023H29.4797C29.3917 10.5103 29.2077 10.8143 28.9277 11.0143C28.6557 11.2143 28.3037 11.3143 27.8717 11.3143C27.5357 11.3143 27.2437 11.2583 26.9957 11.1463C26.7477 11.0343 26.5437 10.8863 26.3837 10.7023C26.2237 10.5103 26.1077 10.2943 26.0357 10.0543C25.9637 9.80625 25.9317 9.54625 25.9397 9.27425H30.5837C30.5997 8.89825 30.5637 8.50225 30.4757 8.08625C30.3957 7.67025 30.2437 7.28625 30.0197 6.93425C29.8037 6.58225 29.5117 6.29425 29.1437 6.07025C28.7837 5.83825 28.3277 5.72225 27.7757 5.72225C27.3517 5.72225 26.9597 5.80225 26.5997 5.96225C26.2477 6.12225 25.9397 6.34625 25.6757 6.63425C25.4197 6.92225 25.2197 7.26225 25.0757 7.65425C24.9317 8.04625 24.8597 8.47825 24.8597 8.95025C24.8757 9.42225 24.9437 9.85825 25.0637 10.2583C25.1917 10.6583 25.3797 11.0023 25.6277 11.2903C25.8757 11.5783 26.1797 11.8023 26.5397 11.9623C26.9077 12.1223 27.3397 12.2023 27.8357 12.2023C28.5397 12.2023 29.1237 12.0263 29.5877 11.6743C30.0517 11.3223 30.3517 10.7983 30.4877 10.1023ZM31.605 5.86625V12.0703H32.625V9.31025C32.625 8.91025 32.665 8.55825 32.745 8.25425C32.825 7.94225 32.953 7.67825 33.129 7.46225C33.305 7.24625 33.537 7.08225 33.825 6.97025C34.113 6.85825 34.461 6.80225 34.869 6.80225V5.72225C34.317 5.70625 33.861 5.81825 33.501 6.05825C33.141 6.29825 32.837 6.67025 32.589 7.17425H32.565V5.86625H31.605ZM39.7342 8.37425H36.1702C36.1862 8.13425 36.2382 7.91025 36.3262 7.70225C36.4142 7.48625 36.5342 7.29825 36.6862 7.13825C36.8382 6.97825 37.0182 6.85425 37.2262 6.76625C37.4422 6.67025 37.6822 6.62225 37.9462 6.62225C38.2022 6.62225 38.4342 6.67025 38.6422 6.76625C38.8582 6.85425 39.0422 6.97825 39.1942 7.13825C39.3542 7.29025 39.4782 7.47425 39.5662 7.69025C39.6622 7.90625 39.7182 8.13425 39.7342 8.37425ZM40.7182 10.1023H39.7102C39.6222 10.5103 39.4382 10.8143 39.1582 11.0143C38.8862 11.2143 38.5342 11.3143 38.1022 11.3143C37.7662 11.3143 37.4742 11.2583 37.2262 11.1463C36.9782 11.0343 36.7742 10.8863 36.6142 10.7023C36.4542 10.5103 36.3382 10.2943 36.2662 10.0543C36.1942 9.80625 36.1622 9.54625 36.1702 9.27425H40.8142C40.8302 8.89825 40.7942 8.50225 40.7062 8.08625C40.6262 7.67025 40.4742 7.28625 40.2502 6.93425C40.0342 6.58225 39.7422 6.29425 39.3742 6.07025C39.0142 5.83825 38.5582 5.72225 38.0062 5.72225C37.5822 5.72225 37.1902 5.80225 36.8302 5.96225C36.4782 6.12225 36.1702 6.34625 35.9062 6.63425C35.6502 6.92225 35.4502 7.26225 35.3062 7.65425C35.1622 8.04625 35.0902 8.47825 35.0902 8.95025C35.1062 9.42225 35.1742 9.85825 35.2942 10.2583C35.4222 10.6583 35.6102 11.0023 35.8582 11.2903C36.1062 11.5783 36.4102 11.8023 36.7702 11.9623C37.1382 12.1223 37.5702 12.2023 38.0662 12.2023C38.7702 12.2023 39.3542 12.0263 39.8182 11.6743C40.2822 11.3223 40.5822 10.7983 40.7182 10.1023ZM42.6155 9.02225C42.6155 8.71825 42.6475 8.42225 42.7115 8.13425C42.7755 7.84625 42.8795 7.59025 43.0235 7.36625C43.1675 7.14225 43.3595 6.96225 43.5995 6.82625C43.8395 6.69025 44.1315 6.62225 44.4755 6.62225C44.8275 6.62225 45.1275 6.69025 45.3755 6.82625C45.6235 6.95425 45.8235 7.12625 45.9755 7.34225C46.1355 7.55825 46.2515 7.81025 46.3235 8.09825C46.3955 8.37825 46.4315 8.67025 46.4315 8.97425C46.4315 9.26225 46.3955 9.54625 46.3235 9.82625C46.2595 10.1063 46.1515 10.3583 45.9995 10.5823C45.8475 10.7983 45.6515 10.9743 45.4115 11.1103C45.1715 11.2463 44.8795 11.3143 44.5355 11.3143C44.2075 11.3143 43.9195 11.2503 43.6715 11.1223C43.4315 10.9943 43.2315 10.8223 43.0715 10.6063C42.9195 10.3903 42.8035 10.1463 42.7235 9.87425C42.6515 9.59425 42.6155 9.31025 42.6155 9.02225ZM47.4155 12.0703V3.50225H46.3955V6.69425H46.3715C46.2595 6.51025 46.1195 6.35825 45.9515 6.23825C45.7915 6.11025 45.6195 6.01025 45.4355 5.93825C45.2515 5.85825 45.0675 5.80225 44.8835 5.77025C44.6995 5.73825 44.5275 5.72225 44.3675 5.72225C43.8955 5.72225 43.4795 5.81025 43.1195 5.98625C42.7675 6.15425 42.4715 6.38625 42.2315 6.68225C41.9995 6.97025 41.8235 7.31025 41.7035 7.70225C41.5915 8.09425 41.5355 8.51025 41.5355 8.95025C41.5355 9.39025 41.5955 9.80625 41.7155 10.1983C41.8355 10.5903 42.0115 10.9343 42.2435 11.2303C42.4835 11.5263 42.7795 11.7623 43.1315 11.9383C43.4915 12.1143 43.9115 12.2023 44.3915 12.2023C44.8235 12.2023 45.2195 12.1263 45.5795 11.9743C45.9395 11.8223 46.2035 11.5743 46.3715 11.2303H46.3955V12.0703H47.4155ZM52.3606 3.50225V12.0703H53.3806V11.2423H53.4046C53.5166 11.4263 53.6526 11.5823 53.8126 11.7103C53.9806 11.8303 54.1566 11.9263 54.3406 11.9983C54.5246 12.0703 54.7086 12.1223 54.8926 12.1543C55.0846 12.1863 55.2566 12.2023 55.4086 12.2023C55.8806 12.2023 56.2926 12.1183 56.6446 11.9503C57.0046 11.7823 57.3006 11.5543 57.5326 11.2663C57.7726 10.9703 57.9486 10.6263 58.0606 10.2343C58.1806 9.84225 58.2406 9.42625 58.2406 8.98625C58.2406 8.54625 58.1806 8.13025 58.0606 7.73825C57.9406 7.34625 57.7606 7.00225 57.5206 6.70625C57.2886 6.40225 56.9926 6.16225 56.6326 5.98625C56.2806 5.81025 55.8646 5.72225 55.3846 5.72225C54.9526 5.72225 54.5566 5.80225 54.1966 5.96225C53.8366 6.11425 53.5726 6.36225 53.4046 6.70625H53.3806V3.50225H52.3606ZM57.1606 8.91425C57.1606 9.21825 57.1286 9.51425 57.0646 9.80225C57.0006 10.0903 56.8966 10.3463 56.7526 10.5703C56.6086 10.7943 56.4166 10.9743 56.1766 11.1103C55.9446 11.2463 55.6526 11.3143 55.3006 11.3143C54.9486 11.3143 54.6486 11.2503 54.4006 11.1223C54.1526 10.9863 53.9486 10.8103 53.7886 10.5943C53.6366 10.3783 53.5246 10.1303 53.4526 9.85025C53.3806 9.56225 53.3446 9.26625 53.3446 8.96225C53.3446 8.67425 53.3766 8.39025 53.4406 8.11025C53.5126 7.83025 53.6246 7.58225 53.7766 7.36625C53.9286 7.14225 54.1246 6.96225 54.3646 6.82625C54.6046 6.69025 54.8966 6.62225 55.2406 6.62225C55.5686 6.62225 55.8526 6.68625 56.0926 6.81425C56.3406 6.94225 56.5406 7.11425 56.6926 7.33025C56.8526 7.54625 56.9686 7.79425 57.0406 8.07425C57.1206 8.34625 57.1606 8.62625 57.1606 8.91425ZM61.8739 12.8983C61.7539 13.2023 61.6339 13.4583 61.5139 13.6663C61.4019 13.8743 61.2739 14.0423 61.1299 14.1703C60.9939 14.3063 60.8379 14.4023 60.6619 14.4583C60.4939 14.5223 60.2979 14.5543 60.0739 14.5543C59.9539 14.5543 59.8339 14.5463 59.7139 14.5303C59.5939 14.5143 59.4779 14.4863 59.3659 14.4463V13.5103C59.4539 13.5503 59.5539 13.5823 59.6659 13.6063C59.7859 13.6383 59.8859 13.6543 59.9659 13.6543C60.1739 13.6543 60.3459 13.6023 60.4819 13.4983C60.6259 13.4023 60.7339 13.2623 60.8059 13.0783L61.2259 12.0343L58.7659 5.86625H59.9179L61.7299 10.9423H61.7539L63.4939 5.86625H64.5739L61.8739 12.8983Z" fill="#A0B1B6"/>
</svg>
